<svg width="50" height="50" viewBox="0 0 50 50" fill="none" xmlns="http://www.w3.org/2000/svg">
<circle cx="25" cy="25" r="25" fill="#0C2144"/>
<path d="M17.6425 14.0812C17.7628 14.1865 17.845 14.3286 17.8762 14.4855C17.9074 14.6423 17.8859 14.805 17.815 14.9483C17.8027 14.9908 17.7964 15.0347 17.7962 15.0788C17.7962 15.1702 17.8194 15.3442 18.0383 15.5617C18.1442 15.6675 18.2254 15.7429 18.3138 15.8256C18.3863 15.8923 18.4632 15.9619 18.5603 16.0576C18.7488 16.2374 18.9475 16.4491 19.1258 16.7144C19.4956 17.2698 19.7 17.9643 19.7 18.975C19.7 20.2118 19.2418 21.266 18.527 21.9127L18.6198 22.02C19.0258 22.5188 19.2621 23.1655 19.41 23.8035C19.7 25.065 19.7 26.5817 19.7 27.6387V27.675C19.7 31.7161 19.1505 34.0086 18.5458 35.3194C18.2413 35.9791 17.918 36.3996 17.6381 36.6635C17.5243 36.7727 17.3989 36.869 17.264 36.9506C17.2023 36.9878 17.1378 37.0203 17.0712 37.0478C17.0712 37.0478 16.9073 37.1 16.8 37.1C16.6927 37.1 16.5289 37.0478 16.5289 37.0478C16.4615 37.0219 16.3969 36.9894 16.336 36.9506C16.2012 36.869 16.0757 36.7727 15.9619 36.6635C15.6821 36.3982 15.3587 35.9791 15.0542 35.3194C14.4496 34.0086 13.9 31.7161 13.9 27.675V27.6387C13.9 26.5802 13.9 25.065 14.19 23.8035C14.3379 23.1655 14.5743 22.5188 14.9803 22.02C15.0093 21.9837 15.0412 21.9475 15.0731 21.9127C14.3582 21.266 13.9 20.2118 13.9 18.975C13.9 18.5023 14.0262 17.9382 14.2002 17.4177C14.3742 16.8957 14.6178 16.3563 14.8991 15.9213C15.234 15.3558 15.7053 14.8816 16.0707 14.5626C16.271 14.3865 16.4801 14.2205 16.6971 14.0653L16.7609 14.0218C16.8938 13.9332 17.0523 13.8909 17.2118 13.9017C17.3712 13.9124 17.5226 13.9756 17.6425 14.0812Z" fill="#DBEBFF"/>
<rect x="24.9" y="23.9" width="10.2" height="10.2" rx="1.1" stroke="#DBEBFF" stroke-width="1.8"/>
<mask id="path-4-inside-1_701_70" fill="white">
<path d="M21.8505 17.1212C22.8198 16.4636 23.9487 16.0801 25.118 16.0112C26.2873 15.9424 27.4535 16.1908 28.4932 16.7302C29.5329 17.2696 30.4076 18.0799 31.0247 19.0755C31.6418 20.071 31.9785 21.2148 31.999 22.386C32.0195 23.5571 31.7233 24.712 31.1414 25.7286C30.5596 26.7452 29.7139 27.5857 28.6938 28.1613C27.6736 28.7368 26.5169 29.0259 25.3459 28.9982C24.1749 28.9704 23.0332 28.6267 22.0414 28.0035L23.1842 26.185C23.8483 26.6023 24.6127 26.8324 25.3968 26.851C26.1809 26.8696 26.9554 26.676 27.6385 26.2906C28.3215 25.9053 28.8878 25.3425 29.2774 24.6618C29.6669 23.9811 29.8653 23.2078 29.8516 22.4237C29.8378 21.6395 29.6124 20.8736 29.1992 20.207C28.786 19.5404 28.2003 18.9979 27.5042 18.6367C26.808 18.2755 26.0272 18.1092 25.2442 18.1553C24.4613 18.2014 23.7054 18.4582 23.0564 18.8985L21.8505 17.1212Z"/>
</mask>
<path d="M21.8505 17.1212C22.8198 16.4636 23.9487 16.0801 25.118 16.0112C26.2873 15.9424 27.4535 16.1908 28.4932 16.7302C29.5329 17.2696 30.4076 18.0799 31.0247 19.0755C31.6418 20.071 31.9785 21.2148 31.999 22.386C32.0195 23.5571 31.7233 24.712 31.1414 25.7286C30.5596 26.7452 29.7139 27.5857 28.6938 28.1613C27.6736 28.7368 26.5169 29.0259 25.3459 28.9982C24.1749 28.9704 23.0332 28.6267 22.0414 28.0035L23.1842 26.185C23.8483 26.6023 24.6127 26.8324 25.3968 26.851C26.1809 26.8696 26.9554 26.676 27.6385 26.2906C28.3215 25.9053 28.8878 25.3425 29.2774 24.6618C29.6669 23.9811 29.8653 23.2078 29.8516 22.4237C29.8378 21.6395 29.6124 20.8736 29.1992 20.207C28.786 19.5404 28.2003 18.9979 27.5042 18.6367C26.808 18.2755 26.0272 18.1092 25.2442 18.1553C24.4613 18.2014 23.7054 18.4582 23.0564 18.8985L21.8505 17.1212Z" stroke="#DBEBFF" stroke-width="3.6" mask="url(#path-4-inside-1_701_70)"/>
</svg>
