<svg width="50" height="50" viewBox="0 0 50 50" fill="none" xmlns="http://www.w3.org/2000/svg">
<circle cx="25" cy="25" r="25" fill="#0C2144"/>
<path d="M25.5 10.75C17.9237 10.75 11.75 16.9237 11.75 24.5C11.75 32.0763 17.9237 38.25 25.5 38.25C33.0763 38.25 39.25 32.0763 39.25 24.5C39.25 16.9237 33.0763 10.75 25.5 10.75ZM13.1387 24.5C13.1387 22.7125 13.5237 21.0075 14.2112 19.4675L20.11 35.6238C15.985 33.6163 13.1387 29.395 13.1387 24.5ZM25.5 36.8612C24.29 36.8612 23.1213 36.6825 22.0075 36.3525L25.72 25.5725L29.515 35.9813C29.5425 36.0363 29.57 36.105 29.5975 36.1462C28.3187 36.6137 26.9437 36.8612 25.5 36.8612ZM27.205 18.6975C27.9475 18.6563 28.6213 18.5738 28.6213 18.5738C29.2813 18.4913 29.2125 17.515 28.5388 17.5562C28.5388 17.5562 26.5313 17.7075 25.2388 17.7075C24.0288 17.7075 21.98 17.5562 21.98 17.5562C21.32 17.5287 21.2375 18.5462 21.9113 18.5875C21.9113 18.5875 22.5437 18.67 23.2037 18.7112L25.1287 23.9913L22.42 32.1038L17.9237 18.6975C18.6662 18.67 19.34 18.5875 19.34 18.5875C20 18.505 19.9313 17.5288 19.2575 17.57C19.2575 17.57 17.25 17.7213 15.9575 17.7213C15.7237 17.7213 15.4488 17.7212 15.16 17.7075C17.3875 14.3525 21.1825 12.1387 25.5 12.1387C28.7175 12.1387 31.6462 13.3625 33.8462 15.3837C33.7912 15.3837 33.7363 15.37 33.6813 15.37C32.4713 15.37 31.605 16.4288 31.605 17.57C31.605 18.5875 32.1962 19.4537 32.815 20.4712C33.2825 21.2962 33.8325 22.355 33.8325 23.8813C33.8325 24.94 33.42 26.1638 32.8975 27.8825L31.66 32.0075L27.205 18.6975ZM36.3487 18.5738C37.8932 21.4003 38.2731 24.718 37.4076 27.8205C36.5421 30.9229 34.4995 33.5649 31.715 35.1838L35.4963 24.2662C36.1975 22.5062 36.4313 21.09 36.4313 19.8387C36.4313 19.385 36.4037 18.9588 36.3487 18.5738Z" fill="#DBEBFF"/>
</svg>
