<svg width="625" height="613" viewBox="0 0 625 613" fill="none" xmlns="http://www.w3.org/2000/svg">
<path fill-rule="evenodd" clip-rule="evenodd" d="M169.032 6.21848C187.724 -5.40281 212.298 0.329254 223.92 19.0214L467.064 410.105L584.428 410.233C606.439 410.256 624.262 428.119 624.238 450.129C624.215 472.139 606.352 489.963 584.342 489.939L125.864 489.442L75.5511 590.074C65.7083 609.761 41.7698 617.741 22.083 607.898C2.39619 598.055 -5.58395 574.117 4.25885 554.43L208.706 145.511L156.229 61.1058C144.608 42.4137 150.34 17.8398 169.032 6.21848ZM258.099 224.957L165.693 409.779L373.146 410.004L258.099 224.957Z" fill="url(#paint0_linear_508_56)"/>
<path d="M175.17 388V361.818H184.017C186.071 361.818 187.75 362.189 189.054 362.93C190.366 363.663 191.338 364.656 191.969 365.909C192.599 367.162 192.915 368.56 192.915 370.102C192.915 371.645 192.599 373.047 191.969 374.308C191.347 375.57 190.384 376.575 189.08 377.325C187.776 378.067 186.105 378.438 184.068 378.438H177.727V375.625H183.966C185.372 375.625 186.501 375.382 187.354 374.896C188.206 374.411 188.824 373.754 189.207 372.928C189.599 372.092 189.795 371.151 189.795 370.102C189.795 369.054 189.599 368.116 189.207 367.29C188.824 366.463 188.202 365.815 187.341 365.347C186.48 364.869 185.338 364.631 183.915 364.631H178.341V388H175.17ZM221.373 374.909C221.373 377.67 220.874 380.057 219.877 382.068C218.88 384.08 217.512 385.631 215.773 386.722C214.035 387.812 212.049 388.358 209.816 388.358C207.583 388.358 205.597 387.812 203.859 386.722C202.12 385.631 200.752 384.08 199.755 382.068C198.758 380.057 198.259 377.67 198.259 374.909C198.259 372.148 198.758 369.761 199.755 367.75C200.752 365.739 202.12 364.188 203.859 363.097C205.597 362.006 207.583 361.46 209.816 361.46C212.049 361.46 214.035 362.006 215.773 363.097C217.512 364.188 218.88 365.739 219.877 367.75C220.874 369.761 221.373 372.148 221.373 374.909ZM218.305 374.909C218.305 372.642 217.925 370.729 217.167 369.169C216.417 367.609 215.398 366.429 214.112 365.628C212.833 364.827 211.401 364.426 209.816 364.426C208.231 364.426 206.795 364.827 205.508 365.628C204.229 366.429 203.211 367.609 202.452 369.169C201.702 370.729 201.327 372.642 201.327 374.909C201.327 377.176 201.702 379.089 202.452 380.649C203.211 382.209 204.229 383.389 205.508 384.19C206.795 384.991 208.231 385.392 209.816 385.392C211.401 385.392 212.833 384.991 214.112 384.19C215.398 383.389 216.417 382.209 217.167 380.649C217.925 379.089 218.305 377.176 218.305 374.909ZM227.964 388V361.818H236.81C238.856 361.818 240.535 362.168 241.847 362.866C243.16 363.557 244.132 364.507 244.762 365.717C245.393 366.928 245.708 368.304 245.708 369.847C245.708 371.389 245.393 372.757 244.762 373.95C244.132 375.143 243.164 376.081 241.86 376.763C240.556 377.436 238.89 377.773 236.862 377.773H229.703V374.909H236.759C238.157 374.909 239.282 374.705 240.134 374.295C240.995 373.886 241.617 373.307 242.001 372.557C242.393 371.798 242.589 370.895 242.589 369.847C242.589 368.798 242.393 367.882 242.001 367.098C241.609 366.314 240.982 365.709 240.122 365.283C239.261 364.848 238.123 364.631 236.708 364.631H231.134V388H227.964ZM240.288 376.239L246.731 388H243.049L236.708 376.239H240.288ZM250.819 364.631V361.818H270.456V364.631H262.223V388H259.052V364.631H250.819ZM276.609 388V361.818H292.308V364.631H279.779V373.477H291.132V376.29H279.779V388H276.609ZM321.089 374.909C321.089 377.67 320.59 380.057 319.593 382.068C318.596 384.08 317.228 385.631 315.489 386.722C313.751 387.812 311.765 388.358 309.532 388.358C307.299 388.358 305.313 387.812 303.575 386.722C301.836 385.631 300.468 384.08 299.471 382.068C298.474 380.057 297.975 377.67 297.975 374.909C297.975 372.148 298.474 369.761 299.471 367.75C300.468 365.739 301.836 364.188 303.575 363.097C305.313 362.006 307.299 361.46 309.532 361.46C311.765 361.46 313.751 362.006 315.489 363.097C317.228 364.188 318.596 365.739 319.593 367.75C320.59 369.761 321.089 372.148 321.089 374.909ZM318.021 374.909C318.021 372.642 317.641 370.729 316.883 369.169C316.133 367.609 315.114 366.429 313.827 365.628C312.549 364.827 311.117 364.426 309.532 364.426C307.947 364.426 306.511 364.827 305.224 365.628C303.945 366.429 302.927 367.609 302.168 369.169C301.418 370.729 301.043 372.642 301.043 374.909C301.043 377.176 301.418 379.089 302.168 380.649C302.927 382.209 303.945 383.389 305.224 384.19C306.511 384.991 307.947 385.392 309.532 385.392C311.117 385.392 312.549 384.991 313.827 384.19C315.114 383.389 316.133 382.209 316.883 380.649C317.641 379.089 318.021 377.176 318.021 374.909ZM327.68 388V361.818H330.85V385.188H343.021V388H327.68ZM352.36 361.818V388H349.19V361.818H352.36ZM382.068 374.909C382.068 377.67 381.569 380.057 380.572 382.068C379.575 384.08 378.207 385.631 376.468 386.722C374.73 387.812 372.744 388.358 370.511 388.358C368.278 388.358 366.292 387.812 364.554 386.722C362.815 385.631 361.447 384.08 360.45 382.068C359.453 380.057 358.954 377.67 358.954 374.909C358.954 372.148 359.453 369.761 360.45 367.75C361.447 365.739 362.815 364.188 364.554 363.097C366.292 362.006 368.278 361.46 370.511 361.46C372.744 361.46 374.73 362.006 376.468 363.097C378.207 364.188 379.575 365.739 380.572 367.75C381.569 369.761 382.068 372.148 382.068 374.909ZM379 374.909C379 372.642 378.62 370.729 377.862 369.169C377.112 367.609 376.093 366.429 374.807 365.628C373.528 364.827 372.096 364.426 370.511 364.426C368.926 364.426 367.49 364.827 366.203 365.628C364.924 366.429 363.906 367.609 363.147 369.169C362.397 370.729 362.022 372.642 362.022 374.909C362.022 377.176 362.397 379.089 363.147 380.649C363.906 382.209 364.924 383.389 366.203 384.19C367.49 384.991 368.926 385.392 370.511 385.392C372.096 385.392 373.528 384.991 374.807 384.19C376.093 383.389 377.112 382.209 377.862 380.649C378.62 379.089 379 377.176 379 374.909Z" fill="#58616C"/>
<defs>
<linearGradient id="paint0_linear_508_56" x1="570.5" y1="112" x2="-74.5" y2="632.5" gradientUnits="userSpaceOnUse">
<stop/>
<stop offset="1" stop-opacity="0"/>
</linearGradient>
</defs>
</svg>
