<?xml version="1.0" standalone="no"?>
<!DOCTYPE svg PUBLIC "-//W3C//DTD SVG 20010904//EN"
 "http://www.w3.org/TR/2001/REC-SVG-20010904/DTD/svg10.dtd">
<svg version="1.0" xmlns="http://www.w3.org/2000/svg"
 width="700.000000pt" height="700.000000pt" viewBox="0 0 700.000000 700.000000"
 preserveAspectRatio="xMidYMid meet">
<metadata>
Created by potrace 1.14, written by Peter Selinger 2001-2017
</metadata>
<g transform="translate(0.000000,700.000000) scale(0.100000,-0.100000)"
fill="#000000" stroke="none">
<path d="M763 5643 l2 -248 770 0 770 0 1 -2140 0 -2140 297 -3 297 -2 1 22
c0 13 1 490 1 1061 l1 1037 41 0 c23 0 592 2 1266 3 l1225 2 0 -1060 0 -1060
298 -3 297 -2 1 42 c0 54 0 4685 -1 4716 l0 22 -297 -2 -298 -3 0 -1077 c0
-953 -2 -1078 -15 -1079 -60 -4 -2504 -3 -2509 1 -5 3 -8 379 -8 835 l0 830
758 -1 c524 0 760 3 762 10 2 6 3 117 3 246 l-1 235 -1832 3 -1831 2 1 -247z"/>
</g>
</svg>
